<svg xmlns:xlink="http://www.w3.org/1999/xlink" xmlns="http://www.w3.org/2000/svg" viewBox="0 0 333 94" preserveAspectRatio="xMidYMid meet" class="css-1uxicuq" id="eahadcfe" width="333"  height="94" ><defs id="SvgjsDefs5284"></defs><g id="SvgjsG5285" featurekey="symbolFeature-0" transform="matrix(0.7652329430859264,0,0,0.7652329430859264,0,11)" fill="#F9F8EB"><path xmlns="http://www.w3.org/2000/svg" d="M98.341,66.867c2.683-6.386,1.653-13.184,0.115-17.044c-0.403-1.012-1.363-1.693-2.453-1.74  c-4.141-0.179-10.915,1.098-16.065,5.756c-1.739-1.018-3.756-1.611-5.912-1.611c-0.327,0-0.648,0.022-0.969,0.049  c-0.282-1.782-0.729-3.369-1.234-4.637c-0.403-1.012-1.363-1.693-2.453-1.74c-5.011-0.227-13.863,1.692-19.042,9.141  c-2.433-5.163-6.709-8.722-10.021-10.494V34.29c0-7.738-4.506-14.795-11.392-18.129V9.686h0.143c0.764,0,1.384-0.619,1.384-1.384  V1.384C30.44,0.619,29.821,0,29.057,0H11.069c-0.764,0-1.384,0.619-1.384,1.384v6.918c0,0.765,0.62,1.384,1.384,1.384h0.323v6.475  C4.506,19.494,0,26.551,0,34.29v57.031c0,1.527,1.239,2.768,2.768,2.768h17.255h17.517h54.514c1.303,0,2.429-0.908,2.705-2.182  l4.803-22.139c0.178-0.816-0.025-1.67-0.551-2.324C98.82,67.209,98.589,67.026,98.341,66.867z M70.4,58.937  c0.838-0.604,1.83-1.006,2.907-1.13c0.236-0.027,0.475-0.045,0.718-0.045c0.812,0,1.585,0.16,2.296,0.444  c0.872,0.348,1.646,0.887,2.272,1.565c0.779,0.844,1.329,1.899,1.548,3.073c0.069,0.371,0.11,0.752,0.11,1.144  c0,0.86-0.176,1.68-0.492,2.426H78.98h-2.844h-2.785h-2.473h-2.588c-0.087-0.204-0.161-0.415-0.226-0.63  c-0.172-0.569-0.267-1.171-0.267-1.796C67.799,61.909,68.828,60.068,70.4,58.937z M52.199,64.856  C54.235,53.991,63.236,51.898,67.23,51.51c0.173,0.706,0.346,1.587,0.458,2.586c-3.257,2.094-5.425,5.742-5.425,9.893  c0,0.832,0.09,1.643,0.255,2.426h-4.239l5.761-9.432c0.397-0.652,0.192-1.504-0.46-1.902c-0.652-0.4-1.504-0.193-1.902,0.459  l-6.643,10.875h-2.725l-0.239-0.17C52.129,65.775,52.172,65.312,52.199,64.856z M37.539,51.821c0.473-0.65,0.935-1.207,1.339-1.656  c0.427,0.285,0.912,0.634,1.428,1.047c3.173,2.539,7.468,7.515,6.149,15.203h-4.241l-1.908-9.743l-0.058-0.294  c-0.146-0.75-0.873-1.242-1.624-1.092c-0.559,0.11-0.971,0.542-1.085,1.064c-0.039,0.18-0.044,0.369-0.007,0.561l0.007,0.035  l1.854,9.469h-1.854h-0.826h-1.707c-0.084-0.245-0.163-0.488-0.234-0.729c-0.138-0.468-0.256-0.932-0.345-1.387  c-0.29-1.48-0.329-2.887-0.197-4.206c0.097-0.971,0.285-1.893,0.542-2.762c0.145-0.488,0.307-0.962,0.487-1.416  C35.898,54.306,36.735,52.926,37.539,51.821z M14.519,66.514c-0.565,0.148-1.078,0.466-1.453,0.93  c-0.525,0.654-0.728,1.508-0.55,2.324l4.075,18.785H5.535V34.29c0-6.09,3.851-11.597,9.58-13.706  c1.088-0.399,1.812-1.438,1.812-2.597V9.686h6.452v8.302c0,1.159,0.724,2.197,1.812,2.597c5.73,2.108,9.581,7.616,9.581,13.706  v12.125c-1.378,1.509-2.772,3.439-3.886,5.7c-1.592-0.806-3.385-1.271-5.288-1.271c-6.485,0-11.761,5.275-11.761,11.76  C13.836,63.976,14.085,65.289,14.519,66.514z M29.23,66.415h-8.546c-0.82-1.055-1.313-2.375-1.313-3.811  c0-3.434,2.793-6.227,6.227-6.227c1.274,0,2.459,0.386,3.448,1.046C28.471,60.182,28.427,63.214,29.23,66.415z M92.913,74.305  l-3.091,14.248H40.306h-2.767h-2.768H22.254l-3.569-16.455l-0.032-0.148h12.792h1.265h2.062h2.457h0.311h2.767h0.248h2.415h3.602  H50.3h7.938h1.872h1.773h3.51h1.087h3.37h8.35h4.456h1.011h3.131h4.605h2.021L92.913,74.305z M92.386,66.415h-6.854  c0.165-0.783,0.255-1.594,0.255-2.426c0-2.313-0.681-4.468-1.84-6.289c3.399-2.925,7.542-3.775,9.919-4.006  C94.525,56.397,95.202,61.625,92.386,66.415z" fill="#F9F8EB"></path></g><g id="SvgjsG5286" featurekey="textGroupContainer" transform="matrix(1,0,0,1,332,0)" fill="#F9F8EB"><rect xmlns="http://www.w3.org/2000/svg" y="0" height="1" width="1" opacity="0" fill="#F9F8EB"></rect><rect xmlns="http://www.w3.org/2000/svg" y="0" x="-235" width="3" height="94" fill="#F9F8EB"></rect></g><g id="SvgjsG5287" featurekey="nameFeature-0" transform="matrix(0.8581986379684672,0,0,0.8581986379684672,112.13556758396118,10.765719209835499)" fill="#F9F8EB"><path d="M27.888 16.95 c2.9747 0 7.4 1.8319 7.4 6.8776 s-4.1128 6.8776 -6.8776 6.8776 l-20.344 0 l-0.033476 9.0684 l-4.6952 -0.017539 l0.075588 -20.455 l0 -2.3514 l0.0086328 0 l0 -0.0086328 l2.3477 0.0086328 l22.118 0 z M29.711 25.647 c0.43632 -0.24144 0.8826 -0.64608 0.88236 -1.819 c0 -0.94328 -0.31914 -1.4539 -1.139 -1.8214 c-0.745 -0.33402 -1.5585 -0.36098 -1.5661 -0.36098 l-19.779 0 l0 4.3645 l20.281 0 c0.2048 -0.0070704 0.81636 -0.08422 1.3204 -0.36305 z M51.311 15.421 l18.353 24.38 l-5.9015 0 l-5.132 -6.7948 l-14.639 0 l-5.0572 6.7948 l-5.8354 0 z M47.512 28.311 l7.5966 0 l-3.7984 -5.0644 z M106.374 16.974 l0.083516 11.4 c0.034258 2.5224 -0.98356 4.9712 -2.8664 6.896 c-1.9964 2.0406 -5.8816 4.484 -13.054 4.5368 c-0.069572 0.0005078 -0.13941 0.00078124 -0.20848 0.00078124 c-5.4292 0 -9.9632 -1.5595 -12.785 -4.402 c-1.9399 -1.954 -2.9907 -4.4436 -2.9611 -7.0128 l-0.083984 -11.384 l4.6952 -0.034805 l0.084492 11.433 l-0.00027344 0.025625 c-0.019375 1.3246 0.53336 2.5915 1.598 3.664 c1.9603 1.9747 5.3772 3.043 9.6272 3.014 c4.3352 -0.031914 7.7912 -1.1416 9.732 -3.1251 c1.0183 -1.0408 1.5467 -2.2692 1.5279 -3.553 l0 -0.016758 l-0.08422 -11.407 z M117.87400000000001 35.238 l27.18 0 l0 4.6954 l-31.875 0 l0 -22.815 l4.6954 0 l0 18.119 z M156.42759999999998 40.04922 l-4.6491 0 l0 -22.591 l4.6491 0 l0 22.591 z M190.318 17.185 l4.6952 0 l0 22.5 l-27.179 -14.196 l0 14.511 l-4.6954 0 l0 -22.5 l27.18 14.196 l0 -14.511 z M218.031 15.421 l18.353 24.38 l-5.9015 0 l-5.132 -6.7948 l-14.639 0 l-5.0572 6.7948 l-5.8354 0 z M214.23200000000003 28.311 l7.5966 0 l-3.7984 -5.0644 z" fill="#F9F8EB"></path></g><g id="SvgjsG5288" featurekey="sloganFeature-0" transform="matrix(1.4032944583589002,0,0,1.4032944583589002,112.6574804493161,43.10707893009397)" fill="#76B39D"><path d="M17.607 10.9648 l-13.59 0 l0 2.1824 l9.0599 0 l0 2.3476 l-9.0599 0 l0 4.5299 l-2.3477 0 l0 -11.407 l15.938 0 l0 2.3476 z M23.2738 20.02461 l-2.3246 0 l0 -11.295 l2.3246 0 l0 11.295 z M26.6292 8.475 l15.938 0 l0 2.3477 l-6.7954 0 l0 9.0932 l-2.3476 0 l0 -9.0932 l-6.7946 0 l0 -2.3477 z M52.5026 15.578800000000001 l-6.5734 0.000019531 l0 -2.375 l6.5734 0 l0 2.375 z M71.74700000000001 12.0424 c0 1.0081 -0.32878 1.759 -0.8114 2.2982 c0.48524 0.53376 0.8113 1.2642 0.8113 2.2318 c0 2.523 -2.0564 3.4388 -3.4388 3.4388 l-12.499 0 l0 -11.408 l12.237 0 c1.4875 0 3.7004 0.9158 3.7004 3.4388 z M68.95800000000001 17.4818 c0.21816 -0.12072 0.44116 -0.32318 0.44102 -0.90964 c0 -0.47164 -0.15969 -0.72696 -0.56946 -0.91072 c-0.3725 -0.16701 -0.77926 -0.18049 -0.78304 -0.18049 l-9.8895 0 l0 2.1822 l10.141 0 c0.1024 -0.0033984 0.40832 -0.041972 0.66036 -0.18139 z M68.95800000000001 12.952 c0.21816 -0.12072 0.44116 -0.32304 0.44116 -0.90964 c0 -0.47164 -0.15969 -0.72696 -0.56946 -0.91072 c-0.3725 -0.16701 -0.77926 -0.18049 -0.78304 -0.18049 l-9.8895 0 l0 2.1822 l10.14 0 c0.1024 -0.0033984 0.40832 -0.041972 0.66036 -0.18139 z M77.0938 20.02461 l-2.3246 0 l0 -11.295 l2.3246 0 l0 11.295 z M80.4492 8.475 l15.938 0 l0 2.3477 l-6.7954 0 l0 9.0932 l-2.3476 0 l0 -9.0932 l-6.7946 0 l0 -2.3477 z M102.538 11.0046 c-0.21816 0.12059 -0.44118 0.32306 -0.44118 0.90966 c0 0.45724 0.14779 0.70718 0.52734 0.89108 c0.38386 0.18598 0.81196 0.19957 0.83354 0.2001 l8.5334 0.03336 c1.4828 0 3.6956 0.9158 3.6956 3.4388 s-2.0564 3.4388 -3.4388 3.4388 l-12.499 0 l0 -2.3477 l12.488 0 c0.1024 -0.0035352 0.40818 -0.04211 0.66022 -0.18152 c0.21828 -0.12072 0.44128 -0.32318 0.44128 -0.90964 c0 -0.45724 -0.14779 -0.70718 -0.52734 -0.89108 c-0.3827 -0.18547 -0.81038 -0.19947 -0.8343 -0.20012 l-8.5278 -0.03793 l0 0.0045703 c-1.4875 0 -3.7004 -0.9158 -3.7004 -3.4388 s2.0564 -3.4388 3.4388 -3.4388 l12.499 0 l0 2.3477 l-12.488 0 c-0.10229 0.0035352 -0.40834 0.04211 -0.6605 0.18152 z" fill="#76B39D"></path></g></svg>