<svg xmlns:xlink="http://www.w3.org/1999/xlink" xmlns="http://www.w3.org/2000/svg" width="350" height="250.11992612326344" viewBox="0 0 350 250.11992612326344" class="css-1j8o68f"><defs id="SvgjsDefs5030"></defs><g id="SvgjsG5031" featurekey="nameFeature-0" transform="matrix(10.954522156275159,0,0,10.954522156275159,-36.56319991479986,-185.5808730936976)" fill="#F9F8EB"><path d="M27.888 16.95 c2.9747 0 7.4 1.8319 7.4 6.8776 s-4.1128 6.8776 -6.8776 6.8776 l-20.344 0 l-0.033476 9.0684 l-4.6952 -0.017539 l0.075588 -20.455 l0 -2.3514 l0.0086328 0 l0 -0.0086328 l2.3477 0.0086328 l22.118 0 z M29.711 25.647 c0.43632 -0.24144 0.8826 -0.64608 0.88236 -1.819 c0 -0.94328 -0.31914 -1.4539 -1.139 -1.8214 c-0.745 -0.33402 -1.5585 -0.36098 -1.5661 -0.36098 l-19.779 0 l0 4.3645 l20.281 0 c0.2048 -0.0070704 0.81636 -0.08422 1.3204 -0.36305 z" fill="#F9F8EB"></path></g></svg>