<svg xmlns:xlink="http://www.w3.org/1999/xlink" xmlns="http://www.w3.org/2000/svg" width="310" height="228.62560500961885" viewBox="0 0 310 228.62560500961885" class="css-1j8o68f"><defs id="SvgjsDefs5138"></defs><g id="SvgjsG5139" featurekey="symbolFeature-0" transform="matrix(1.1478494146288896,0,0,1.1478494146288896,98,0)" fill="#7BB8B1"><path xmlns="http://www.w3.org/2000/svg" d="M98.341,66.867c2.683-6.386,1.653-13.184,0.115-17.044c-0.403-1.012-1.363-1.693-2.453-1.74  c-4.141-0.179-10.915,1.098-16.065,5.756c-1.739-1.018-3.756-1.611-5.912-1.611c-0.327,0-0.648,0.022-0.969,0.049  c-0.282-1.782-0.729-3.369-1.234-4.637c-0.403-1.012-1.363-1.693-2.453-1.74c-5.011-0.227-13.863,1.692-19.042,9.141  c-2.433-5.163-6.709-8.722-10.021-10.494V34.29c0-7.738-4.506-14.795-11.392-18.129V9.686h0.143c0.764,0,1.384-0.619,1.384-1.384  V1.384C30.44,0.619,29.821,0,29.057,0H11.069c-0.764,0-1.384,0.619-1.384,1.384v6.918c0,0.765,0.62,1.384,1.384,1.384h0.323v6.475  C4.506,19.494,0,26.551,0,34.29v57.031c0,1.527,1.239,2.768,2.768,2.768h17.255h17.517h54.514c1.303,0,2.429-0.908,2.705-2.182  l4.803-22.139c0.178-0.816-0.025-1.67-0.551-2.324C98.82,67.209,98.589,67.026,98.341,66.867z M70.4,58.937  c0.838-0.604,1.83-1.006,2.907-1.13c0.236-0.027,0.475-0.045,0.718-0.045c0.812,0,1.585,0.16,2.296,0.444  c0.872,0.348,1.646,0.887,2.272,1.565c0.779,0.844,1.329,1.899,1.548,3.073c0.069,0.371,0.11,0.752,0.11,1.144  c0,0.86-0.176,1.68-0.492,2.426H78.98h-2.844h-2.785h-2.473h-2.588c-0.087-0.204-0.161-0.415-0.226-0.63  c-0.172-0.569-0.267-1.171-0.267-1.796C67.799,61.909,68.828,60.068,70.4,58.937z M52.199,64.856  C54.235,53.991,63.236,51.898,67.23,51.51c0.173,0.706,0.346,1.587,0.458,2.586c-3.257,2.094-5.425,5.742-5.425,9.893  c0,0.832,0.09,1.643,0.255,2.426h-4.239l5.761-9.432c0.397-0.652,0.192-1.504-0.46-1.902c-0.652-0.4-1.504-0.193-1.902,0.459  l-6.643,10.875h-2.725l-0.239-0.17C52.129,65.775,52.172,65.312,52.199,64.856z M37.539,51.821c0.473-0.65,0.935-1.207,1.339-1.656  c0.427,0.285,0.912,0.634,1.428,1.047c3.173,2.539,7.468,7.515,6.149,15.203h-4.241l-1.908-9.743l-0.058-0.294  c-0.146-0.75-0.873-1.242-1.624-1.092c-0.559,0.11-0.971,0.542-1.085,1.064c-0.039,0.18-0.044,0.369-0.007,0.561l0.007,0.035  l1.854,9.469h-1.854h-0.826h-1.707c-0.084-0.245-0.163-0.488-0.234-0.729c-0.138-0.468-0.256-0.932-0.345-1.387  c-0.29-1.48-0.329-2.887-0.197-4.206c0.097-0.971,0.285-1.893,0.542-2.762c0.145-0.488,0.307-0.962,0.487-1.416  C35.898,54.306,36.735,52.926,37.539,51.821z M14.519,66.514c-0.565,0.148-1.078,0.466-1.453,0.93  c-0.525,0.654-0.728,1.508-0.55,2.324l4.075,18.785H5.535V34.29c0-6.09,3.851-11.597,9.58-13.706  c1.088-0.399,1.812-1.438,1.812-2.597V9.686h6.452v8.302c0,1.159,0.724,2.197,1.812,2.597c5.73,2.108,9.581,7.616,9.581,13.706  v12.125c-1.378,1.509-2.772,3.439-3.886,5.7c-1.592-0.806-3.385-1.271-5.288-1.271c-6.485,0-11.761,5.275-11.761,11.76  C13.836,63.976,14.085,65.289,14.519,66.514z M29.23,66.415h-8.546c-0.82-1.055-1.313-2.375-1.313-3.811  c0-3.434,2.793-6.227,6.227-6.227c1.274,0,2.459,0.386,3.448,1.046C28.471,60.182,28.427,63.214,29.23,66.415z M92.913,74.305  l-3.091,14.248H40.306h-2.767h-2.768H22.254l-3.569-16.455l-0.032-0.148h12.792h1.265h2.062h2.457h0.311h2.767h0.248h2.415h3.602  H50.3h7.938h1.872h1.773h3.51h1.087h3.37h8.35h4.456h1.011h3.131h4.605h2.021L92.913,74.305z M92.386,66.415h-6.854  c0.165-0.783,0.255-1.594,0.255-2.426c0-2.313-0.681-4.468-1.84-6.289c3.399-2.925,7.542-3.775,9.919-4.006  C94.525,56.397,95.202,61.625,92.386,66.415z" fill="#7BB8B1"></path></g><g id="SvgjsG5140" featurekey="nameFeature-0" transform="matrix(1.5895920877182523,0,0,1.5895920877182523,-5.404611733884225,108.92489797928727)" fill="#7BB8B1"><path d="M13.86 12 c8.82 0 11.46 3.14 11.46 9.44 c0 6.32 -2.64 9.46 -11.46 9.46 l-4 0 l0 8.5 c0 0.36 -0.24 0.6 -0.6 0.6 l-5.26 0 c-0.36 0 -0.6 -0.24 -0.6 -0.6 l0 -26.8 c0 -0.36 0.24 -0.6 0.6 -0.6 l9.86 0 z M14.32 25.22 c3.18 0 4.82 -0.68 4.82 -3.78 c0 -3.06 -1.64 -3.76 -4.82 -3.76 l-4.46 0 l0 7.54 l4.46 0 z M55.552 39.32 c0.14 0.4 -0.04 0.68 -0.48 0.68 l-5.48 0 c-0.32 0 -0.56 -0.12 -0.68 -0.48 l-1.28 -3.88 l-10.02 0 l-1.28 3.88 c-0.1 0.36 -0.36 0.48 -0.68 0.48 l-5.48 0 c-0.44 0 -0.62 -0.28 -0.48 -0.68 l9.8 -26.84 c0.12 -0.32 0.36 -0.48 0.68 -0.48 l4.8 0 c0.32 0 0.66 0.16 0.78 0.48 z M39.432 30.18 l6.4 0 l-3.2 -9.68 z M83.884 12 c0.36 0 0.6 0.24 0.6 0.6 l0 16.06 c0 8.18 -4.96 11.92 -11.88 11.92 c-6.88 0 -11.88 -3.74 -11.88 -11.92 l0 -16.06 c0 -0.36 0.24 -0.6 0.6 -0.6 l5.26 0 c0.36 0 0.6 0.24 0.6 0.6 l0 16.06 c0 3.5 2.04 5.7 5.42 5.7 c3.42 0 5.4 -2.2 5.4 -5.7 l0 -16.06 c0 -0.36 0.24 -0.6 0.6 -0.6 l5.28 0 z M109.436 34.32 c0.36 0 0.6 0.24 0.6 0.6 l0 4.48 c0 0.36 -0.24 0.6 -0.6 0.6 l-17.34 0 c-0.36 0 -0.6 -0.24 -0.6 -0.6 l0 -26.8 c0 -0.36 0.24 -0.6 0.6 -0.6 l5.26 0 c0.36 0 0.6 0.24 0.6 0.6 l0 21.72 l11.48 0 z M135.58800000000002 17.68 l-6.34 0 l0 16.64 l6.34 0 c0.36 0 0.6 0.24 0.6 0.6 l0 4.48 c0 0.36 -0.24 0.6 -0.6 0.6 l-19.14 0 c-0.36 0 -0.6 -0.24 -0.6 -0.6 l0 -4.48 c0 -0.36 0.24 -0.6 0.6 -0.6 l6.34 0 l0 -16.64 l-6.34 0 c-0.36 0 -0.6 -0.24 -0.6 -0.6 l0 -4.48 c0 -0.36 0.24 -0.6 0.6 -0.6 l19.14 0 c0.36 0 0.6 0.24 0.6 0.6 l0 4.48 c0 0.36 -0.24 0.6 -0.6 0.6 z M166.04 12 c0.36 0 0.6 0.24 0.6 0.6 l0 26.8 c0 0.36 -0.24 0.6 -0.6 0.6 l-5.92 0 c-0.32 0 -0.56 -0.12 -0.72 -0.4 l-9.54 -17.14 l0 16.94 c0 0.36 -0.24 0.6 -0.6 0.6 l-5.26 0 c-0.36 0 -0.6 -0.24 -0.6 -0.6 l0 -26.8 c0 -0.36 0.24 -0.6 0.6 -0.6 l5.9 0 c0.32 0 0.56 0.12 0.72 0.4 l9.54 17.12 l0 -16.92 c0 -0.36 0.24 -0.6 0.6 -0.6 l5.28 0 z M198.372 39.32 c0.14 0.4 -0.04 0.68 -0.48 0.68 l-5.48 0 c-0.32 0 -0.56 -0.12 -0.68 -0.48 l-1.28 -3.88 l-10.02 0 l-1.28 3.88 c-0.1 0.36 -0.36 0.48 -0.68 0.48 l-5.48 0 c-0.44 0 -0.62 -0.28 -0.48 -0.68 l9.8 -26.84 c0.12 -0.32 0.36 -0.48 0.68 -0.48 l4.8 0 c0.32 0 0.66 0.16 0.78 0.48 z M182.252 30.18 l6.4 0 l-3.2 -9.68 z" fill="#7BB8B1"></path></g><g id="SvgjsG5141" featurekey="sloganFeature-0" transform="matrix(2.4334429080712137,0,0,2.4334429080712137,28.795727207753664,179.17804586023965)" fill="#7BB8B1"><path d="M0.7 20.04 c-0.2 0.02 -0.28 -0.68 -0.12 -0.72 c1.16 -0.3 2.06 -0.48 2.06 -1.96 l0 -8.88 c0 -1.28 -0.82 -1.62 -1.68 -1.84 c-0.16 -0.04 -0.06 -0.7 0.1 -0.68 c1.46 0.16 3.98 0.12 5.2 0.12 c1.82 0 3.14 -0.08 4.78 -0.12 c0.48 0 0.48 0.32 0.38 0.78 l-0.48 1.9 c-0.06 0.28 -0.56 0.28 -0.64 0 c-0.3 -0.98 -0.9 -1.54 -3.4 -1.54 c-1.4 0 -1.86 0.36 -1.86 1.4 l0 3.46 c0 0.52 0.26 0.62 0.66 0.62 l0.44 0 c1.62 0 3.02 -0.16 3.84 -0.9 c0.2 -0.18 0.64 -0.14 0.46 0.26 l-1.14 2.52 c-0.16 0.36 -0.46 0.32 -0.68 0.02 c-0.46 -0.64 -1.48 -0.9 -2.64 -0.9 l-0.28 0 c-0.4 0 -0.66 0.1 -0.66 0.62 l0 3.16 c0 1.48 0.92 1.6 2.56 1.96 c0.18 0.04 0.08 0.74 -0.12 0.72 c-1.44 -0.1 -2.48 -0.12 -3.64 -0.12 s-2.2 0.02 -3.14 0.12 z M15.33 20 c-0.16 0 -0.28 -0.66 -0.12 -0.68 c1.02 -0.14 1.66 -0.54 1.66 -1.8 l0 -9.04 c0 -1.26 -0.64 -1.66 -1.66 -1.8 c-0.16 -0.02 -0.04 -0.68 0.12 -0.68 l5.48 0 c0.16 0 0.28 0.66 0.12 0.68 c-0.86 0.12 -1.66 0.4 -1.66 1.8 l0 9.04 c0 1.4 0.8 1.68 1.66 1.8 c0.16 0.02 0.04 0.68 -0.12 0.68 l-5.48 0 z M27.54 20 c-0.18 0 -0.3 -0.64 -0.14 -0.66 c1.38 -0.18 2.3 -0.46 2.3 -1.54 l0 -9.86 c0 -0.5 -0.18 -0.66 -0.66 -0.66 l-0.54 0 c-1.9 0 -2.96 0.44 -3.36 1.3 c-0.18 0.4 -0.86 0.34 -0.78 0 c0.18 -0.72 0.34 -1.34 0.46 -2.4 c0.04 -0.38 0.26 -0.36 0.62 -0.32 c0.92 0.1 1.76 0.14 5.56 0.14 s5.14 -0.04 6.1 -0.14 c0.36 -0.04 0.7 -0.06 0.58 0.32 c-0.3 0.94 -0.5 1.68 -0.62 2.4 c-0.06 0.34 -0.6 0.36 -0.68 0 c-0.2 -0.84 -1.08 -1.3 -2.8 -1.3 l-0.62 0 c-0.48 0 -0.78 0.16 -0.78 0.66 l0 9.86 c0 1.08 0.92 1.36 2.3 1.54 c0.16 0.02 0.04 0.66 -0.14 0.66 l-6.8 0 z M41.89 15.84 c-0.36 0.06 -0.48 -1.2 -0.12 -1.26 l5.64 -0.92 c0.36 -0.06 0.48 1.2 0.12 1.26 z M60.34 12.379999999999999 c1.86 0 3.66 1.34 3.66 3.58 c0 2.48 -2.26 4.08 -5.6 4.08 c-0.96 0 -2.08 -0.12 -3.56 -0.12 c-1.26 0 -2.22 0.02 -3.14 0.12 c-0.18 0.02 -0.28 -0.68 -0.12 -0.72 c1.16 -0.3 2.06 -0.48 2.06 -1.96 l0 -8.88 c0 -1.28 -0.82 -1.62 -1.68 -1.84 c-0.16 -0.04 -0.06 -0.7 0.1 -0.68 c0.82 0.1 1.78 0.12 2.42 0.12 c1.6 0 2.78 -0.12 3.66 -0.12 c2.58 0 4.7 1.08 4.72 3.28 c0.02 1.62 -1.12 2.74 -2.52 3.02 l0 0.12 z M57.46 7 c-1.06 0 -1.42 0.36 -1.42 1.48 l0 3.56 l2.06 0 c1.44 0 2.28 -0.72 2.28 -2.26 c0 -1.9 -1.28 -2.78 -2.92 -2.78 z M58.34 19 c1.76 0 3.08 -0.52 3.08 -2.6 c0 -2.2 -1.46 -3.36 -3.32 -3.36 l-2.06 0 l0 4.32 c0 1.1 0.56 1.64 2.3 1.64 z M68.05 20 c-0.16 0 -0.28 -0.66 -0.12 -0.68 c1.02 -0.14 1.66 -0.54 1.66 -1.8 l0 -9.04 c0 -1.26 -0.64 -1.66 -1.66 -1.8 c-0.16 -0.02 -0.04 -0.68 0.12 -0.68 l5.48 0 c0.16 0 0.28 0.66 0.12 0.68 c-0.86 0.12 -1.66 0.4 -1.66 1.8 l0 9.04 c0 1.4 0.8 1.68 1.66 1.8 c0.16 0.02 0.04 0.68 -0.12 0.68 l-5.48 0 z M80.25999999999999 20 c-0.18 0 -0.3 -0.64 -0.14 -0.66 c1.38 -0.18 2.3 -0.46 2.3 -1.54 l0 -9.86 c0 -0.5 -0.18 -0.66 -0.66 -0.66 l-0.54 0 c-1.9 0 -2.96 0.44 -3.36 1.3 c-0.18 0.4 -0.86 0.34 -0.78 0 c0.18 -0.72 0.34 -1.34 0.46 -2.4 c0.04 -0.38 0.26 -0.36 0.62 -0.32 c0.92 0.1 1.76 0.14 5.56 0.14 s5.14 -0.04 6.1 -0.14 c0.36 -0.04 0.7 -0.06 0.58 0.32 c-0.3 0.94 -0.5 1.68 -0.62 2.4 c-0.06 0.34 -0.6 0.36 -0.68 0 c-0.2 -0.84 -1.08 -1.3 -2.8 -1.3 l-0.62 0 c-0.48 0 -0.78 0.16 -0.78 0.66 l0 9.86 c0 1.08 0.92 1.36 2.3 1.54 c0.16 0.02 0.04 0.66 -0.14 0.66 l-6.8 0 z M98.09 20.32 c-1.64 0 -4.14 -0.72 -3.9 -1.6 l0.2 -0.74 c0.56 -2.1 1.22 0.98 4.52 0.98 c1.68 0 2.5 -0.82 2.5 -1.98 c0 -0.94 -0.6 -1.34 -2.02 -2.22 l-1.94 -1.22 c-2.16 -1.36 -3.04 -2.2 -3.04 -3.7 c0 -2.46 2.4 -4.16 4.88 -4.16 c1.52 0 3.46 0.66 3.24 1.34 l-0.24 0.76 c-0.62 1.94 -1.12 -0.74 -3.86 -0.74 c-1.42 0 -2.16 0.72 -2.16 1.78 c0 0.9 0.54 1.4 1.88 2.22 l2.1 1.3 c2.12 1.32 2.98 2.22 2.98 3.66 c0 2.5 -2.46 4.32 -5.14 4.32 z" fill="#7BB8B1"></path></g></svg>