<svg xmlns:xlink="http://www.w3.org/1999/xlink" xmlns="http://www.w3.org/2000/svg" width="200" height="47.20762970164924" viewBox="0 0 200 47.20762970164924" class="css-1j8o68f"><defs id="SvgjsDefs4897"></defs><g id="SvgjsG4898" featurekey="nameFeature-0" transform="matrix(0.8581986379684672,0,0,0.8581986379684672,-2.864432416038818,-13.234280790164501)" fill="#F9F8EB"><path d="M27.888 16.95 c2.9747 0 7.4 1.8319 7.4 6.8776 s-4.1128 6.8776 -6.8776 6.8776 l-20.344 0 l-0.033476 9.0684 l-4.6952 -0.017539 l0.075588 -20.455 l0 -2.3514 l0.0086328 0 l0 -0.0086328 l2.3477 0.0086328 l22.118 0 z M29.711 25.647 c0.43632 -0.24144 0.8826 -0.64608 0.88236 -1.819 c0 -0.94328 -0.31914 -1.4539 -1.139 -1.8214 c-0.745 -0.33402 -1.5585 -0.36098 -1.5661 -0.36098 l-19.779 0 l0 4.3645 l20.281 0 c0.2048 -0.0070704 0.81636 -0.08422 1.3204 -0.36305 z M51.311 15.421 l18.353 24.38 l-5.9015 0 l-5.132 -6.7948 l-14.639 0 l-5.0572 6.7948 l-5.8354 0 z M47.512 28.311 l7.5966 0 l-3.7984 -5.0644 z M106.374 16.974 l0.083516 11.4 c0.034258 2.5224 -0.98356 4.9712 -2.8664 6.896 c-1.9964 2.0406 -5.8816 4.484 -13.054 4.5368 c-0.069572 0.0005078 -0.13941 0.00078124 -0.20848 0.00078124 c-5.4292 0 -9.9632 -1.5595 -12.785 -4.402 c-1.9399 -1.954 -2.9907 -4.4436 -2.9611 -7.0128 l-0.083984 -11.384 l4.6952 -0.034805 l0.084492 11.433 l-0.00027344 0.025625 c-0.019375 1.3246 0.53336 2.5915 1.598 3.664 c1.9603 1.9747 5.3772 3.043 9.6272 3.014 c4.3352 -0.031914 7.7912 -1.1416 9.732 -3.1251 c1.0183 -1.0408 1.5467 -2.2692 1.5279 -3.553 l0 -0.016758 l-0.08422 -11.407 z M117.87400000000001 35.238 l27.18 0 l0 4.6954 l-31.875 0 l0 -22.815 l4.6954 0 l0 18.119 z M156.42759999999998 40.04922 l-4.6491 0 l0 -22.591 l4.6491 0 l0 22.591 z M190.318 17.185 l4.6952 0 l0 22.5 l-27.179 -14.196 l0 14.511 l-4.6954 0 l0 -22.5 l27.18 14.196 l0 -14.511 z M218.031 15.421 l18.353 24.38 l-5.9015 0 l-5.132 -6.7948 l-14.639 0 l-5.0572 6.7948 l-5.8354 0 z M214.23200000000003 28.311 l7.5966 0 l-3.7984 -5.0644 z" fill="#F9F8EB"></path></g><g id="SvgjsG4899" featurekey="sloganFeature-0" transform="matrix(1.4032944583589002,0,0,1.4032944583589002,17.657480449316104,19.10707893009397)" fill="#76B39D"><path d="M17.607 10.9648 l-13.59 0 l0 2.1824 l9.0599 0 l0 2.3476 l-9.0599 0 l0 4.5299 l-2.3477 0 l0 -11.407 l15.938 0 l0 2.3476 z M23.2738 20.02461 l-2.3246 0 l0 -11.295 l2.3246 0 l0 11.295 z M26.6292 8.475 l15.938 0 l0 2.3477 l-6.7954 0 l0 9.0932 l-2.3476 0 l0 -9.0932 l-6.7946 0 l0 -2.3477 z M52.5026 15.578800000000001 l-6.5734 0.000019531 l0 -2.375 l6.5734 0 l0 2.375 z M71.74700000000001 12.0424 c0 1.0081 -0.32878 1.759 -0.8114 2.2982 c0.48524 0.53376 0.8113 1.2642 0.8113 2.2318 c0 2.523 -2.0564 3.4388 -3.4388 3.4388 l-12.499 0 l0 -11.408 l12.237 0 c1.4875 0 3.7004 0.9158 3.7004 3.4388 z M68.95800000000001 17.4818 c0.21816 -0.12072 0.44116 -0.32318 0.44102 -0.90964 c0 -0.47164 -0.15969 -0.72696 -0.56946 -0.91072 c-0.3725 -0.16701 -0.77926 -0.18049 -0.78304 -0.18049 l-9.8895 0 l0 2.1822 l10.141 0 c0.1024 -0.0033984 0.40832 -0.041972 0.66036 -0.18139 z M68.95800000000001 12.952 c0.21816 -0.12072 0.44116 -0.32304 0.44116 -0.90964 c0 -0.47164 -0.15969 -0.72696 -0.56946 -0.91072 c-0.3725 -0.16701 -0.77926 -0.18049 -0.78304 -0.18049 l-9.8895 0 l0 2.1822 l10.14 0 c0.1024 -0.0033984 0.40832 -0.041972 0.66036 -0.18139 z M77.0938 20.02461 l-2.3246 0 l0 -11.295 l2.3246 0 l0 11.295 z M80.4492 8.475 l15.938 0 l0 2.3477 l-6.7954 0 l0 9.0932 l-2.3476 0 l0 -9.0932 l-6.7946 0 l0 -2.3477 z M102.538 11.0046 c-0.21816 0.12059 -0.44118 0.32306 -0.44118 0.90966 c0 0.45724 0.14779 0.70718 0.52734 0.89108 c0.38386 0.18598 0.81196 0.19957 0.83354 0.2001 l8.5334 0.03336 c1.4828 0 3.6956 0.9158 3.6956 3.4388 s-2.0564 3.4388 -3.4388 3.4388 l-12.499 0 l0 -2.3477 l12.488 0 c0.1024 -0.0035352 0.40818 -0.04211 0.66022 -0.18152 c0.21828 -0.12072 0.44128 -0.32318 0.44128 -0.90964 c0 -0.45724 -0.14779 -0.70718 -0.52734 -0.89108 c-0.3827 -0.18547 -0.81038 -0.19947 -0.8343 -0.20012 l-8.5278 -0.03793 l0 0.0045703 c-1.4875 0 -3.7004 -0.9158 -3.7004 -3.4388 s2.0564 -3.4388 3.4388 -3.4388 l12.499 0 l0 2.3477 l-12.488 0 c-0.10229 0.0035352 -0.40834 0.04211 -0.6605 0.18152 z" fill="#76B39D"></path></g></svg>